<svg class="animated" id="freepik_stories-ordinary-day" xmlns="http://www.w3.org/2000/svg" viewBox="0 0 500 500" version="1.1" xmlns:xlink="http://www.w3.org/1999/xlink" xmlns:svgjs="http://svgjs.com/svgjs"><style>svg#freepik_stories-ordinary-day:not(.animated) .animable {opacity: 0;}svg#freepik_stories-ordinary-day.animated #freepik--House--inject-122 {animation: 6s Infinite  linear floating;animation-delay: 0s;}svg#freepik_stories-ordinary-day.animated #freepik--character-2--inject-122 {animation: 3s Infinite  linear floating;animation-delay: 0s;}svg#freepik_stories-ordinary-day.animated #freepik--character-1--inject-122 {animation: 3s Infinite  linear floating;animation-delay: 0s;}            @keyframes floating {                0% {                    opacity: 1;                    transform: translateY(0px);                }                50% {                    transform: translateY(-10px);                }                100% {                    opacity: 1;                    transform: translateY(0px);                }            }        </style><g id="freepik--House--inject-122" class="animable" style="transform-origin: 249.05px 264.095px;"><polygon id="freepik--Grass--inject-122" points="54.07 298.8 240.92 406.68 444.02 289.42 257.17 181.54 54.07 298.8" style="fill: rgb(186, 104, 200); transform-origin: 249.045px 294.11px;" class="animable"></polygon><g id="freepik--Plants--inject-122" class="animable" style="transform-origin: 110.956px 256.086px;"><path d="M122.6,257.81a41.52,41.52,0,0,0-2.84-11.93c-2.51-6.14-7.32-12.32-12.84-13.47s-7.84,2.56-6.67,6.21c1,3.13,5.12,5.73,8.24,8.46s9,9.33,10.59,15.72l3.11.33Z" style="fill: rgb(186, 104, 200); transform-origin: 111.277px 247.663px;" id="el9ceglb6xia" class="animable"></path><g id="elvdt4cjt59y"><g style="opacity: 0.35; transform-origin: 111.277px 247.663px;" class="animable"><path d="M122.6,257.81a41.52,41.52,0,0,0-2.84-11.93c-2.51-6.14-7.32-12.32-12.84-13.47s-7.84,2.56-6.67,6.21c1,3.13,5.12,5.73,8.24,8.46s9,9.33,10.59,15.72l3.11.33Z" id="el3gqhu1wre2v" class="animable" style="transform-origin: 111.277px 247.663px;"></path></g></g><path d="M120.48,260.69a.34.34,0,0,1-.34-.33c-.63-16.08-16.39-25-16.55-25.11a.35.35,0,0,1-.13-.47.35.35,0,0,1,.47-.14c.16.09,16.26,9.23,16.9,25.69a.34.34,0,0,1-.33.36Z" style="fill: rgb(255, 255, 255); transform-origin: 112.124px 247.645px;" id="elx3dzirtmt9" class="animable"></path><path d="M121.19,279l0,.08a2.66,2.66,0,0,1-1.74.85,7.05,7.05,0,0,1-4.88-1.26,13.32,13.32,0,0,1-3.5-3.75,11,11,0,0,0-1.46-2c-1.22-1.19-3.21-1.15-4.79-1.49a6,6,0,0,1-4.53-3.91c-.6-2-.37-4.46,1.5-5.76l-1.6-1a10.31,10.31,0,0,1-2-1.56,3.48,3.48,0,0,1-1-2.29A3.39,3.39,0,0,1,99.15,254a7.14,7.14,0,0,1,3.73-.39,17.13,17.13,0,0,1,3.73.87,2.67,2.67,0,0,0,1,.23,2.74,2.74,0,0,0,1.27-.59c2.72-1.81,7.16-1.69,8.64,1.7.21.5.34,1,.57,1.53.86,1.82,3.24,1.27,4.78,2.12a3.88,3.88,0,0,1,1.8,2.78,17,17,0,0,1-.51,5.66c-.32,1.74-.75,3.45-1.23,5.15-.39,1.4-.82,2.78-1.28,4.16A8.67,8.67,0,0,1,121.19,279Z" style="fill: rgb(186, 104, 200); transform-origin: 110.956px 266.467px;" id="eldyqrzkfh5ov" class="animable"></path><g id="elb0pju4hv916"><g style="opacity: 0.2; transform-origin: 110.956px 266.467px;" class="animable"><path d="M121.19,279l0,.08a2.66,2.66,0,0,1-1.74.85,7.05,7.05,0,0,1-4.88-1.26,13.32,13.32,0,0,1-3.5-3.75,11,11,0,0,0-1.46-2c-1.22-1.19-3.21-1.15-4.79-1.49a6,6,0,0,1-4.53-3.91c-.6-2-.37-4.46,1.5-5.76l-1.6-1a10.31,10.31,0,0,1-2-1.56,3.48,3.48,0,0,1-1-2.29A3.39,3.39,0,0,1,99.15,254a7.14,7.14,0,0,1,3.73-.39,17.13,17.13,0,0,1,3.73.87,2.67,2.67,0,0,0,1,.23,2.74,2.74,0,0,0,1.27-.59c2.72-1.81,7.16-1.69,8.64,1.7.21.5.34,1,.57,1.53.86,1.82,3.24,1.27,4.78,2.12a3.88,3.88,0,0,1,1.8,2.78,17,17,0,0,1-.51,5.66c-.32,1.74-.75,3.45-1.23,5.15-.39,1.4-.82,2.78-1.28,4.16A8.67,8.67,0,0,1,121.19,279Z" id="el1rp7c6mogvn" class="animable" style="transform-origin: 110.956px 266.467px;"></path></g></g><path d="M122.71,274.71a25,25,0,0,0-6.54-9.79.29.29,0,0,0-.15-.14,34,34,0,0,0-2.65-2.23,13.39,13.39,0,0,1,.88-7.1.28.28,0,0,0-.14-.37.27.27,0,0,0-.37.13,13.88,13.88,0,0,0-1,6.87A43.18,43.18,0,0,0,100.45,256a.29.29,0,0,0-.34.2.28.28,0,0,0,.19.34,41.86,41.86,0,0,1,14.59,8c-4-.69-8.79,1.26-9,1.35a.29.29,0,0,0-.15.37.28.28,0,0,0,.26.17l.11,0c.05,0,5.66-2.31,9.64-1.09a24.5,24.5,0,0,1,6.44,9.61.28.28,0,0,0,.27.19.15.15,0,0,0,.09,0A.28.28,0,0,0,122.71,274.71Z" style="fill: rgb(255, 255, 255); transform-origin: 111.43px 265.098px;" id="elotiy2yrkjk" class="animable"></path></g><g id="freepik--house--inject-122" class="animable" style="transform-origin: 239.355px 207.81px;"><polygon points="233.76 89.86 258.82 104.34 258.82 133.28 233.76 118.81 233.76 89.86" style="fill: rgb(224, 224, 224); transform-origin: 246.29px 111.57px;" id="elrdzo5dm8cv" class="animable"></polygon><polygon points="258.82 104.34 283.89 89.86 283.89 147.75 258.82 133.28 258.82 104.34" style="fill: rgb(240, 240, 240); transform-origin: 271.355px 118.805px;" id="eldhxd4mcb1kr" class="animable"></polygon><polygon points="258.82 65.23 231.15 81.17 231.15 88.41 258.82 104.34 286.5 88.41 286.5 81.17 258.82 65.23" style="fill: rgb(69, 90, 100); transform-origin: 258.825px 84.785px;" id="el1h7kap9gi8l" class="animable"></polygon><polygon points="231.15 88.41 258.82 104.34 258.82 97.1 231.15 81.17 231.15 88.41" style="fill: rgb(55, 71, 79); transform-origin: 244.985px 92.755px;" id="elp8bhp1o38ji" class="animable"></polygon><polygon points="286.5 88.41 258.82 104.34 258.82 97.1 286.5 81.17 286.5 88.41" style="fill: rgb(38, 50, 56); transform-origin: 272.66px 92.755px;" id="elz4tp2wjx4i9" class="animable"></polygon><polygon points="240.43 81.17 258.82 70.58 277.22 81.17 258.83 91.76 240.43 81.17" style="fill: rgb(186, 104, 200); transform-origin: 258.825px 81.17px;" id="el5s5qjt76zb5" class="animable"></polygon><polygon points="258.82 70.58 258.83 91.76 240.43 81.17 258.82 70.58" style="fill: rgb(55, 71, 79); transform-origin: 249.63px 81.17px;" id="el785j92kbruc" class="animable"></polygon><polygon points="258.82 70.58 277.22 81.17 258.83 91.76 258.82 70.58" style="fill: rgb(38, 50, 56); transform-origin: 268.02px 81.17px;" id="el29yw83hibfe" class="animable"></polygon><polygon points="119.06 280.04 119.06 180.29 240.92 250.64 240.92 350.39 119.06 280.04" style="fill: rgb(240, 240, 240); transform-origin: 179.99px 265.34px;" id="elegg3luirv1c" class="animable"></polygon><polygon points="119.06 180.29 240.92 250.64 240.92 290.37 119.06 220.08 119.06 180.29" style="fill: rgb(224, 224, 224); transform-origin: 179.99px 235.33px;" id="el53rohgb7y24" class="animable"></polygon><polygon points="356.2 283.84 356.2 184.14 298.51 150.89 240.92 250.64 240.92 350.39 356.2 283.84" style="fill: rgb(250, 250, 250); transform-origin: 298.56px 250.64px;" id="el7q1px5zsoej" class="animable"></polygon><polygon points="231.43 267.27 298.51 150.89 298.51 139.81 221.83 272.81 231.43 267.27" style="fill: rgb(55, 71, 79); transform-origin: 260.17px 206.31px;" id="elc30kbwb75j" class="animable"></polygon><polygon points="180 71.31 298.51 139.81 221.83 272.81 103.31 204.31 180 71.31" style="fill: rgb(69, 90, 100); transform-origin: 200.91px 172.06px;" id="elnjmkr5bcdpo" class="animable"></polygon><polygon points="298.51 150.89 365.8 189.69 375.4 184.14 298.51 139.81 298.51 150.89" style="fill: rgb(38, 50, 56); transform-origin: 336.955px 164.75px;" id="elfdgeiyllek4" class="animable"></polygon><polygon points="322.57 238.88 345.13 225.94 345.13 259.19 322.57 272.13 322.57 238.88" style="fill: rgb(69, 90, 100); transform-origin: 333.85px 249.035px;" id="elo6us8emvbs" class="animable"></polygon><polygon points="343.21 258.08 343.21 227.06 322.57 238.88 322.57 269.91 343.21 258.08" style="fill: rgb(224, 224, 224); transform-origin: 332.89px 248.485px;" id="el3viehxz4l9" class="animable"></polygon><polygon points="345.13 259.19 343.21 258.08 322.57 269.91 322.57 272.13 345.13 259.19" style="fill: rgb(55, 71, 79); transform-origin: 333.85px 265.105px;" id="elyjaxf97sj8s" class="animable"></polygon><polygon points="322.57 255.51 345.13 242.57 345.13 240.34 322.57 253.27 322.57 255.51" style="fill: rgb(69, 90, 100); transform-origin: 333.85px 247.925px;" id="ellf7x7fvrem" class="animable"></polygon><polygon points="251.19 280.04 273.75 267.1 273.75 300.35 251.19 313.29 251.19 280.04" style="fill: rgb(69, 90, 100); transform-origin: 262.47px 290.195px;" id="el794zzk7bfuq" class="animable"></polygon><polygon points="271.82 299.24 271.82 268.21 251.19 280.04 251.19 311.06 271.82 299.24" style="fill: rgb(224, 224, 224); transform-origin: 261.505px 289.635px;" id="el9exmm0w2n2s" class="animable"></polygon><polygon points="273.75 300.35 271.82 299.24 251.19 311.06 251.19 313.29 273.75 300.35" style="fill: rgb(55, 71, 79); transform-origin: 262.47px 306.265px;" id="elyw8u73api4" class="animable"></polygon><polygon points="251.19 296.66 273.75 283.73 273.75 281.49 251.19 294.43 251.19 296.66" style="fill: rgb(69, 90, 100); transform-origin: 262.47px 289.075px;" id="elnp8xfiu1y9i" class="animable"></polygon><polygon points="284.11 200.77 312.91 184.14 312.91 209.08 284.11 225.71 284.11 200.77" style="fill: rgb(69, 90, 100); transform-origin: 298.51px 204.925px;" id="elbzacfgh85qw" class="animable"></polygon><polygon points="310.99 207.97 310.99 185.25 284.11 200.77 284.11 223.48 310.99 207.97" style="fill: rgb(224, 224, 224); transform-origin: 297.55px 204.365px;" id="eltofu06w3tr8" class="animable"></polygon><polygon points="312.91 209.08 310.99 207.97 284.11 223.48 284.11 225.71 312.91 209.08" style="fill: rgb(55, 71, 79); transform-origin: 298.51px 216.84px;" id="elfi62vfbq3rd" class="animable"></polygon><polygon points="365.8 189.69 356.2 189.69 356.21 184.15 365.8 189.69" id="elxa3gr6vix9q" class="animable" style="transform-origin: 361px 186.92px;"></polygon><polygon points="281.54 326.94 281.54 249.38 314.04 230.62 314.04 308.18 281.54 326.94" style="fill: rgb(55, 71, 79); transform-origin: 297.79px 278.78px;" id="elx6g0u3zk6c" class="animable"></polygon><polygon points="312.91 307.32 312.91 231.27 281.54 249.38 281.54 325.43 312.91 307.32" style="fill: rgb(69, 90, 100); transform-origin: 297.225px 278.35px;" id="elznnyd6gv5he" class="animable"></polygon><polygon points="314.04 230.62 312.91 231.27 312.91 307.32 314.04 308.18 314.04 230.62" style="fill: rgb(38, 50, 56); transform-origin: 313.475px 269.4px;" id="elc4rtw68y1fs" class="animable"></polygon><polygon points="214.24 270.87 191.73 257.87 191.73 291.05 214.25 304.05 214.24 270.87" style="fill: rgb(69, 90, 100); transform-origin: 202.99px 280.96px;" id="elyyf9jesexb" class="animable"></polygon><polygon points="193.65 289.94 193.65 258.98 214.24 270.87 214.25 301.83 193.65 289.94" style="fill: rgb(250, 250, 250); transform-origin: 203.95px 280.405px;" id="eltdweglk8zio" class="animable"></polygon><polygon points="191.73 291.05 193.65 289.94 214.25 301.83 214.25 304.05 191.73 291.05" style="fill: rgb(55, 71, 79); transform-origin: 202.99px 296.995px;" id="elrw2u2r6j98b" class="animable"></polygon><polygon points="214.24 287.35 191.73 274.44 191.73 272.21 214.24 285.12 214.24 287.35" style="fill: rgb(69, 90, 100); transform-origin: 202.985px 279.78px;" id="elzd07x4a7mt" class="animable"></polygon><polygon points="193.65 258.98 214.24 270.87 214.24 274.98 193.65 263.17 193.65 258.98" style="fill: rgb(245, 245, 245); transform-origin: 203.945px 266.98px;" id="elqzfc1yzejqc" class="animable"></polygon><polygon points="160.13 239.54 137.62 226.63 137.62 259.81 160.13 272.72 160.13 239.54" style="fill: rgb(69, 90, 100); transform-origin: 148.875px 249.675px;" id="elu2t0ojwzatc" class="animable"></polygon><polygon points="139.54 258.7 139.54 227.74 160.13 239.54 160.13 270.5 139.54 258.7" style="fill: rgb(250, 250, 250); transform-origin: 149.835px 249.12px;" id="el7stjr8rl4fc" class="animable"></polygon><polygon points="139.54 227.74 160.13 239.63 160.13 243.74 139.54 231.93 139.54 227.74" style="fill: rgb(245, 245, 245); transform-origin: 149.835px 235.74px;" id="elkrolebzsnn9" class="animable"></polygon><polygon points="137.62 259.81 139.54 258.7 160.13 270.5 160.13 272.72 137.62 259.81" style="fill: rgb(55, 71, 79); transform-origin: 148.875px 265.71px;" id="elv3i4wlt8un" class="animable"></polygon><polygon points="160.13 256.13 137.62 243.22 137.62 240.99 160.13 253.9 160.13 256.13" style="fill: rgb(69, 90, 100); transform-origin: 148.875px 248.56px;" id="el5fnbgqzm8ow" class="animable"></polygon></g><g id="freepik--Tree--inject-122" class="animable" style="transform-origin: 432.591px 222.199px;"><g id="elgi6h1ha0viq"><rect x="425.16" y="238.75" width="23.86" height="1.95" style="fill: rgb(69, 90, 100); transform-origin: 437.09px 239.725px; transform: rotate(-63.09deg);" class="animable"></rect></g><g id="elkrwzlmmsx2"><rect x="425.04" y="225.95" width="1.95" height="20.01" style="fill: rgb(69, 90, 100); transform-origin: 426.015px 235.955px; transform: rotate(-31.76deg);" class="animable"></rect></g><path d="M433.32,224.91v64.32a.83.83,0,0,1-.48.67,2.52,2.52,0,0,1-2.3,0,.83.83,0,0,1-.48-.67V224.91Z" style="fill: rgb(69, 90, 100); transform-origin: 431.69px 257.544px;" id="el9qdlhgkzsjw" class="animable"></path><g id="el0ogjpu69d96q"><circle cx="448.28" cy="208.95" r="23.81" style="fill: rgb(186, 104, 200); transform-origin: 448.28px 208.95px; transform: rotate(-76.72deg);" class="animable"></circle></g><g id="elpxeertbtdh8"><path d="M455.74,202.86c3.07-9.67,6.35-13.45,4.27-14.63a23.81,23.81,0,1,0,6.64,35.88C459.59,226.17,451.76,215.41,455.74,202.86Z" style="opacity: 0.2; transform-origin: 445.563px 208.954px;" class="animable"></path></g><path d="M427.5,215.69A16.74,16.74,0,1,1,410.76,199,16.74,16.74,0,0,1,427.5,215.69Z" style="fill: rgb(186, 104, 200); transform-origin: 410.76px 215.74px;" id="el9olhjq99rhn" class="animable"></path><g id="elup2dqj5t5i8"><path d="M410.76,199a16.63,16.63,0,0,0-9.78,3.16c-.46,10.22,8.22,20.19,5.8,23.54s-8.41,1.29-10.49-1.55A16.74,16.74,0,1,0,410.76,199Z" style="opacity: 0.2; transform-origin: 411.897px 215.74px;" class="animable"></path></g><g id="elbdxbk78894"><circle cx="431.69" cy="197.65" r="30.71" style="fill: rgb(186, 104, 200); transform-origin: 431.69px 197.65px; transform: rotate(-45deg);" class="animable"></circle></g><g id="elwtuo832zj9e"><path d="M461.58,204.66a30.71,30.71,0,1,1-45-33.74,31,31,0,0,0-7.19,5.63,31.13,31.13,0,0,0-.81,7,30.69,30.69,0,0,0,53,21.1Z" style="opacity: 0.1; transform-origin: 431.274px 199.646px;" class="animable"></path></g></g><g id="freepik--Sidewalk--inject-122" class="animable" style="transform-origin: 249.05px 376.19px;"><polygon points="277.48 329.29 326.23 357.43 364.85 335.12 315.88 307.1 277.48 329.29" style="fill: rgb(245, 245, 245); transform-origin: 321.165px 332.265px;" id="el1ruo2q0cad5" class="animable"></polygon><polygon points="444.02 289.42 484.65 312.87 240.93 453.58 13.45 322.25 54.07 298.8 240.92 406.68 444.02 289.42" style="fill: rgb(245, 245, 245); transform-origin: 249.05px 371.5px;" id="elkn9nckgskx" class="animable"></polygon><polygon points="484.65 312.87 484.65 322.25 240.93 462.96 240.93 453.58 484.65 312.87" style="fill: rgb(235, 235, 235); transform-origin: 362.79px 387.915px;" id="elmwor4776l1m" class="animable"></polygon><polygon points="240.93 453.58 13.45 322.25 13.45 331.63 240.93 462.96 240.93 453.58" style="fill: rgb(224, 224, 224); transform-origin: 127.19px 392.605px;" id="elr9um6r3ajej" class="animable"></polygon><polygon points="240.92 406.68 281.54 430.13 283.61 428.93 242.99 405.48 240.92 406.68" style="fill: rgb(224, 224, 224); transform-origin: 262.265px 417.805px;" id="elf94ah3s4d39" class="animable"></polygon><polygon points="281.54 383.23 322.16 406.68 324.23 405.48 283.61 382.02 281.54 383.23" style="fill: rgb(224, 224, 224); transform-origin: 302.885px 394.35px;" id="elxtoozyg2qg" class="animable"></polygon><polygon points="322.16 359.78 362.78 383.23 364.85 382.02 324.23 358.57 322.16 359.78" style="fill: rgb(224, 224, 224); transform-origin: 343.505px 370.9px;" id="el201xu5wy084" class="animable"></polygon><polygon points="362.78 336.32 403.4 359.78 405.47 358.57 364.85 335.12 362.78 336.32" style="fill: rgb(224, 224, 224); transform-origin: 384.125px 347.45px;" id="el4lkfzlf94px" class="animable"></polygon><polygon points="403.4 312.87 444.02 336.32 446.09 335.12 405.47 311.67 403.4 312.87" style="fill: rgb(224, 224, 224); transform-origin: 424.745px 323.995px;" id="elwplga30k6t" class="animable"></polygon><polygon points="200.3 383.23 159.68 406.68 157.62 405.48 198.24 382.02 200.3 383.23" style="fill: rgb(224, 224, 224); transform-origin: 178.96px 394.35px;" id="ela4go9b1uhtb" class="animable"></polygon><polygon points="159.68 359.78 119.06 383.23 117 382.02 157.62 358.57 159.68 359.78" style="fill: rgb(224, 224, 224); transform-origin: 138.34px 370.9px;" id="elsnr7tq6kbu" class="animable"></polygon><polygon points="119.06 336.32 78.44 359.78 76.38 358.57 117 335.12 119.06 336.32" style="fill: rgb(224, 224, 224); transform-origin: 97.72px 347.45px;" id="elhq5z0irduyo" class="animable"></polygon><polygon points="78.44 312.87 37.83 336.32 35.76 335.12 76.38 311.67 78.44 312.87" style="fill: rgb(224, 224, 224); transform-origin: 57.1px 323.995px;" id="elkjs8lf60w97" class="animable"></polygon><polygon points="240.92 406.68 200.3 430.13 198.24 428.93 238.86 405.48 240.92 406.68" style="fill: rgb(224, 224, 224); transform-origin: 219.58px 417.805px;" id="elh2o7efac6v" class="animable"></polygon></g></g><g id="freepik--Shadows--inject-122" class="animable" style="transform-origin: 264.163px 375.955px;"><path id="freepik--Shadow--inject-122" d="M407.48,354.38c-10.48,5-27.48,5-38,0s-10.48-13.11,0-18.11,27.49-5,38,0S418,349.38,407.48,354.38Z" style="fill: rgb(224, 224, 224); transform-origin: 388.486px 345.325px;" class="animable"></path><path id="freepik--shadow--inject-122" d="M171.87,390.26c-10.26,5.9-8.17,9.34,12.19,21,14.68,8.44,22.29,10.79,32.49,4.76s.08-11.55-14-19.8C185.58,386.27,180.43,385.34,171.87,390.26Z" style="fill: rgb(224, 224, 224); transform-origin: 193.273px 403.374px;" class="animable"></path><ellipse id="freepik--shadow--inject-122" cx="137.23" cy="369.27" rx="24.27" ry="11.57" style="fill: rgb(224, 224, 224); transform-origin: 137.23px 369.27px;" class="animable"></ellipse></g><g id="freepik--character-2--inject-122" class="animable" style="transform-origin: 387.342px 290.37px;"><path d="M390.89,249.57a10.47,10.47,0,0,1,7.74,3.22c1.69,1.69,5.7,13.47,4.12,21.41-1.21,6.11-8.45,9.28-14,6.45-4.37-2.22-4.89-11.08-4.77-15.1S390.89,249.57,390.89,249.57Z" style="fill: rgb(186, 104, 200); transform-origin: 393.538px 265.632px;" id="eluq8dg7ucveo" class="animable"></path><g id="el9gu26m72a5"><path d="M390.89,249.57a10.47,10.47,0,0,1,7.74,3.22c1.69,1.69,5.7,13.47,4.12,21.41-1.21,6.11-8.45,9.28-14,6.45-4.37-2.22-4.89-11.08-4.77-15.1S390.89,249.57,390.89,249.57Z" style="opacity: 0.3; transform-origin: 393.538px 265.632px;" class="animable"></path></g><path d="M394.86,252.53s.86-1.13,2.87-.5a24.8,24.8,0,0,1,3.74,7.36s.52,0,.19-1.37a23.07,23.07,0,0,0-2.51-5.74c-.85-1.14-1.85-2.92-8-3.54a37.26,37.26,0,0,0-9.38.83c-2.68.93-2.16,2.47-2.16,2.47Z" style="fill: rgb(186, 104, 200); transform-origin: 390.669px 254.051px;" id="elgy5mnpzjbv4" class="animable"></path><g id="elz5n269qwdw"><path d="M394.86,252.53s.86-1.13,2.87-.5a24.8,24.8,0,0,1,3.74,7.36s.52,0,.19-1.37a23.07,23.07,0,0,0-2.51-5.74c-.85-1.14-1.85-2.92-8-3.54a37.26,37.26,0,0,0-9.38.83c-2.68.93-2.16,2.47-2.16,2.47Z" style="opacity: 0.5; transform-origin: 390.669px 254.051px;" class="animable"></path></g><path d="M372.59,284.5a38.28,38.28,0,0,1-2.06,4.53c-2.3,3.94-4.8,4.92-5.87,4.85-3-.18-3.28-1.74-1.42-3.3a8.21,8.21,0,0,0,2.08-3,7.9,7.9,0,0,1-1.66.54,1,1,0,0,1-1.19-.74c0-.23.52-.29,1.28-.83a11.65,11.65,0,0,1,2.73-1.77,1.94,1.94,0,0,0,1-.92A55.57,55.57,0,0,0,371,273.38c1-4,1.85-10,2.92-14.92,1.12-5.14,2.64-6.57,6.2-7.23h2.12c3.82,2.56-1.75,11-5.61,23.48C375.86,277.21,374.21,280.47,372.59,284.5Z" style="fill: rgb(255, 168, 167); transform-origin: 372.796px 272.557px;" id="elfpov2kjph7t" class="animable"></path><path d="M374.24,250.33h11.08a9.16,9.16,0,0,0,9.16-9.16v-2.26a10.12,10.12,0,0,0-10.12-10.12h0a10.12,10.12,0,0,0-10.12,10.12Z" style="fill: rgb(55, 71, 79); transform-origin: 384.36px 239.56px;" id="elm5hxj5iv1n" class="animable"></path><path d="M409.22,328.82c.77-.39,1.26.59,2,1.38a5.71,5.71,0,0,1,1.37,2.06c.17.94-.67,2.41-1.6,3.22s-2,1.39-2.36,3.17a4.32,4.32,0,0,1-2.87,3.62,7.3,7.3,0,0,1-5.64,0c-1.09-.7-.09-1.47,1.43-3.65,2-2.84,3.53-4.87,3.53-7.52Z" style="fill: rgb(38, 50, 56); transform-origin: 406.136px 335.784px;" id="elc1c4cnk31b" class="animable"></path><path d="M407.63,326.5l1.63,2.39a2.28,2.28,0,0,1-.55,3.18l0,0a2.48,2.48,0,0,1-3.13-.49L403,328.84Z" style="fill: rgb(255, 168, 167); transform-origin: 406.339px 329.46px;" id="ellkceguwh8t" class="animable"></path><path d="M375.27,278.2a45.54,45.54,0,0,0,.12,9.3,62.19,62.19,0,0,0,2.9,12,53.48,53.48,0,0,0,4.63,9.51c.66,1.13,21.34,21.34,21.34,21.34A4.17,4.17,0,0,0,408,327s-9.41-14.92-11.1-17.64-7.69-6.91-7.69-6.91l.54-23.86Z" style="fill: rgb(55, 71, 79); transform-origin: 391.544px 304.275px;" id="elnbx3m6p6il" class="animable"></path><g id="el0td8km1d7f3l"><rect x="376.64" y="338.91" width="4.14" height="6.03" style="fill: rgb(255, 168, 167); transform-origin: 378.71px 341.925px; transform: rotate(12.81deg);" class="animable"></rect></g><path d="M378.4,278.2l17.18.67A16.73,16.73,0,0,1,397,287c-.58,8.38-8.52,23.36-8.52,23.36a31.8,31.8,0,0,1-.51,10.16c-1.71,6.69-6.59,20.18-6.59,20.18s-2.92.41-4.38-1.28c0,0,2.8-25.14,3.5-31,.75-6.37,2.69-18,2.69-18a29,29,0,0,1-3.47-4.15,12.32,12.32,0,0,1-2.61-8.05" style="fill: rgb(55, 71, 79); transform-origin: 387.024px 309.472px;" id="el3wdvcnvtw7n" class="animable"></path><path d="M376.48,342.41l.13-.58c-.43.08-2.24,3.09-4,4.4-2,1.43-3.68,2.28-4.56,2.92-1.18.87.53,2.63,3.42,2.79,1.44.08,4.06-.36,4.86-1.12s1.39-2,2-2.58,1.93-1,2.37-1.74a5,5,0,0,0,.25-2.17c0-.76-.05-1.59-.3-1.58l-.1.44a5,5,0,0,1-2.46.54C377.41,343.7,376.14,343.54,376.48,342.41Z" style="fill: rgb(38, 50, 56); transform-origin: 374.325px 346.89px;" id="el320a0ds5kpn" class="animable"></path><path d="M381,304.5s1.72-12.21,2.18-14.1a19.38,19.38,0,0,1-3.83-2.74,31.49,31.49,0,0,0,2.62,3.27Z" style="fill: rgb(38, 50, 56); transform-origin: 381.265px 296.08px;" id="elp69to7jx28a" class="animable"></path><path d="M391.4,304.09a55.79,55.79,0,0,1-2.9,6.28s.21,3.92.18,4.71l1.08.95a24.92,24.92,0,0,0-.48-5.29A32.16,32.16,0,0,0,391.4,304.09Z" style="fill: rgb(38, 50, 56); transform-origin: 389.95px 310.06px;" id="elvrel7bzr5v" class="animable"></path><path d="M389.31,251.44s5.34.67,6.05,1c-5.59,3.93-.79,11.88-.79,11.88l-2.67,6.6a29.24,29.24,0,0,1,3.89,8.49c-1.56,1.81-10,7.89-20.7,1,0,0,.28-7.39,1-13.63-2.52-2.41-1.71-5.78-1-7.41,1.52-3.6,3.65-6.95,5.32-8.16h1.85Z" style="fill: rgb(240, 240, 240); transform-origin: 385.084px 267.414px;" id="el0nw770b9bz2" class="animable"></path><path d="M378.39,233.2c-1.07.63-2.39,3.32-2.26,9,.11,4.77,1.66,6,2.44,6.3s2.28.13,3.73-.11v2.86s-2,2.34-1.88,3.66,2.91,1.62,4.79.34a15.17,15.17,0,0,0,3.47-3.79l0-6.59s.86.83,2.31-.44c1.21-1,1.61-2.82.67-3.77a2.1,2.1,0,0,0-3.33.66,11.48,11.48,0,0,1-5.42-1.61A8.73,8.73,0,0,1,378.39,233.2Z" style="fill: rgb(255, 168, 167); transform-origin: 384.151px 244.635px;" id="el34kbbtthdeu" class="animable"></path><path d="M381.47,241a.61.61,0,0,0,.56.65.63.63,0,0,0,.07-1.25A.61.61,0,0,0,381.47,241Z" style="fill: rgb(38, 50, 56); transform-origin: 382.046px 241.025px;" id="el6gydyq0xicd" class="animable"></path><path d="M381.31,245l-1.4.44a.72.72,0,0,0,.91.5A.77.77,0,0,0,381.31,245Z" style="fill: rgb(242, 143, 143); transform-origin: 380.625px 245.486px;" id="elme5ci0w2zj" class="animable"></path><path d="M376.72,239.07l1.42-.39a.7.7,0,0,0-.88-.53A.77.77,0,0,0,376.72,239.07Z" style="fill: rgb(38, 50, 56); transform-origin: 377.419px 238.596px;" id="elgeabe5dhhwt" class="animable"></path><path d="M376.82,240.52a.6.6,0,0,0,.57.65.62.62,0,1,0-.57-.65Z" style="fill: rgb(38, 50, 56); transform-origin: 377.439px 240.552px;" id="ellayrzrovpxh" class="animable"></path><polygon points="379.65 240.18 379.56 243.79 377.66 243.21 379.65 240.18" style="fill: rgb(242, 143, 143); transform-origin: 378.655px 241.985px;" id="el0g3pppg2hwph" class="animable"></polygon><path d="M382.3,248.35c1.54-.21,4.7-1.11,5.19-2.36a3.22,3.22,0,0,1-1.1,1.59,16.72,16.72,0,0,1-4.09,1.72Z" style="fill: rgb(242, 143, 143); transform-origin: 384.895px 247.645px;" id="eljljrjmqiqda" class="animable"></path><polygon points="393.74 266.36 389.29 272.21 391.9 270.92 393.74 266.36" style="fill: rgb(224, 224, 224); transform-origin: 391.515px 269.285px;" id="eltzpminnffoc" class="animable"></polygon><path d="M390,251.53a9.54,9.54,0,0,0-3.39,7.28c-.64,12.87,7.8,16.32,7.8,16.32.82-1.62.32-3.19-.36-4.75a14.66,14.66,0,0,1-4-10.66c.23-4.69,2.56-7.32,3.73-7.68A6.82,6.82,0,0,0,390,251.53Z" style="fill: rgb(186, 104, 200); transform-origin: 390.706px 263.292px;" id="el8avzdexj0g7" class="animable"></path><g id="elraz42sp4ox"><path d="M390,251.53a9.54,9.54,0,0,0-3.39,7.28c-.64,12.87,7.8,16.32,7.8,16.32.82-1.62.32-3.19-.36-4.75a14.66,14.66,0,0,1-4-10.66c.23-4.69,2.56-7.32,3.73-7.68A6.82,6.82,0,0,0,390,251.53Z" style="opacity: 0.5; transform-origin: 390.706px 263.292px;" class="animable"></path></g><path d="M398.56,277.2a17.07,17.07,0,0,1-5-3.47c-2.3-2.21-3.09-3.86-4.93-6.13a7.76,7.76,0,0,0-.78-.84,8.14,8.14,0,0,1-1.32-1.48,6.13,6.13,0,0,1-.94-3.69,12.1,12.1,0,0,1,.67-5.17c.1-.23.67-.35.83-.31-.09.35-.16.69-.22,1a7.92,7.92,0,0,0,1.26,2.15c.78.92,1.63,1.42,1.72,1.23s-.19-.8-.09-1.77.36-1.33.66-1.4c.48-.12.47.39.67,1.17a9,9,0,0,1,.55,3.05,8.39,8.39,0,0,0,.41,2.75c.26,1.05,3.92,4.37,3.92,4.37s-2.41-5.61-3.1-7.82c-1.34-4.33.79-7.8,2.5-8.44,1.2,0,2.17,1,3.45,4.26a52.91,52.91,0,0,1,3.59,14.39C403,275.89,403,279.35,398.56,277.2Z" style="fill: rgb(255, 168, 167); transform-origin: 394.113px 265.126px;" id="elj0jsxakre7" class="animable"></path><path d="M396,268.69s2.39,1.79,3.06,2.47a7.14,7.14,0,0,1,1.65,2.73,3.64,3.64,0,0,0-.79-2.54c-1-1.53-4.46-3.93-4.46-3.93Z" style="fill: rgb(242, 143, 143); transform-origin: 398.09px 270.655px;" id="el3vdu7s1luxd" class="animable"></path></g><g id="freepik--character-1--inject-122" class="animable animator-active" style="transform-origin: 171.22px 333.004px;"><path d="M148.84,293.43a69.17,69.17,0,0,1-.88-17.22.64.64,0,0,1,1.2-.27l4.4,8.16s.53,6,1.08,10.1a57.66,57.66,0,0,0,2.26,11,2.24,2.24,0,0,0,1.07,1.18,13,13,0,0,1,2.84,2.33c.78.7,1.42.84,1.34,1.09a1.19,1.19,0,0,1-1.49.66,8.53,8.53,0,0,1-1.82-.81,11,11,0,0,0,2,2.93c1.88,2,2.06,3.28-1.42,3.58-2.18.18-4-1-6-5.71a38.94,38.94,0,0,1-1.95-5.29C150.27,300.45,149.42,296.3,148.84,293.43Z" style="fill: rgb(177, 102, 104); transform-origin: 154.969px 295.893px;" id="eld3ntlbzox59" class="animable"></path><path d="M143.25,273.89c3.17,0,7,1,8.5,3.92,1.63,3.12,2.7,11.47,2.7,11.47s-1.2,2.58-5.64,2.29Z" style="fill: rgb(186, 104, 200); transform-origin: 148.85px 282.741px;" id="elym57v2xfmxa" class="animable"></path><g id="eli5jij7x1qdh"><path d="M143.25,273.89c3.17,0,7,1,8.5,3.92,1.63,3.12,2.7,11.47,2.7,11.47s-1.2,2.58-5.64,2.29Z" style="opacity: 0.4; transform-origin: 148.85px 282.741px;" class="animable"></path></g><path d="M118,351.74c-.79-.4-1.29.6-2,1.4a6,6,0,0,0-1.4,2.1c-.17.95.69,2.45,1.64,3.27s2.05,1.41,2.39,3.22a4.39,4.39,0,0,0,2.92,3.69,7.51,7.51,0,0,0,5.74,0c1.1-.71.09-1.5-1.46-3.71-2-2.89-3.59-5-3.59-7.65Z" style="fill: rgb(38, 50, 56); transform-origin: 121.166px 358.819px;" id="elgyrxlmilhl" class="animable"></path><path d="M119.62,349.38,118,351.81a1.94,1.94,0,0,0,.72,2.84,2.24,2.24,0,0,0,3.07-.06l2.59-2.83Z" style="fill: rgb(177, 102, 104); transform-origin: 121.016px 352.305px;" id="elk0c5fj9d3ua" class="animable"></path><path d="M150.36,305.9a48.6,48.6,0,0,1-3.17,17.18,93.21,93.21,0,0,1-4.06,10.14c-.67,1.16-20.08,20-20.08,20a4.24,4.24,0,0,1-3.82-3.43s8-13.52,9.68-16.3,7.82-7,7.82-7l-.56-24.26Z" style="fill: rgb(69, 90, 100); transform-origin: 134.795px 327.725px;" id="elq4ubpue0mg" class="animable"></path><g id="elhijdqfy5fo"><rect x="145.09" y="361.43" width="4.21" height="6.13" style="fill: rgb(177, 102, 104); transform-origin: 147.195px 364.495px; transform: rotate(167.19deg);" class="animable"></rect></g><path d="M150.1,301.91l-19.9-.73c-.17,2.18-.43,4.14-.53,9.41-.15,8.54,7.79,24,7.79,24A32.55,32.55,0,0,0,138,345c1.75,6.8,6.49,18.3,6.49,18.3s3,.43,4.45-1.29c0,0-2.63-23.36-3.34-29.35-.76-6.47-2.73-18.3-2.73-18.3a30.22,30.22,0,0,0,3.52-4.22,21,21,0,0,0,3.74-8.19" style="fill: rgb(69, 90, 100); transform-origin: 139.899px 332.264px;" id="elkwp0mxuj1yg" class="animable"></path><path d="M122.6,297.32c.89-9.12,4.19-15.81,4.6-18.1l2.67,11.3a85,85,0,0,0-2.23,9.09,53.57,53.57,0,0,0-1,10.57,2.11,2.11,0,0,0,.63,1.35,12,12,0,0,1,2,2.89c.51.85,1,1.15.91,1.35a1.12,1.12,0,0,1-1.53.19,7.49,7.49,0,0,1-1.42-1.23,10.31,10.31,0,0,0,1,3.21c1.17,2.31,1,3.53-2.26,2.85-2-.43-3.36-2-3.9-6.82a36,36,0,0,1-.32-5.32C122,304.07,122.34,300.08,122.6,297.32Z" style="fill: rgb(177, 102, 104); transform-origin: 125.969px 300.099px;" id="el7vgyppy2pl8" class="animable"></path><path d="M136.62,274.09c-3.77.91-8.79,2.08-10.28,6.17a115.59,115.59,0,0,0-3.09,11.85,7.15,7.15,0,0,0,6.29,1.87l.87-3.05-.74,15.45c3,3.21,14.42,4.65,20.87-.06,0,0-.44-21.65-.44-24.92s-1.82-7.22-6.85-7.51Z" style="fill: rgb(186, 104, 200); transform-origin: 136.895px 291.616px;" id="elfp0wo8pwnme" class="animable"></path><g id="elu0pvtsy6f7d"><path d="M136.62,274.09c-3.77.91-8.79,2.08-10.28,6.17a115.59,115.59,0,0,0-3.09,11.85,7.15,7.15,0,0,0,6.29,1.87l.87-3.05-.74,15.45c3,3.21,14.42,4.65,20.87-.06,0,0-.44-21.65-.44-24.92s-1.82-7.22-6.85-7.51Z" style="opacity: 0.3; transform-origin: 136.895px 291.616px;" class="animable"></path></g><g id="elig3gdfi5dst"><polygon points="130.41 290.93 132.31 284.97 130.2 295.42 130.41 290.93" style="opacity: 0.2; transform-origin: 131.255px 290.195px;" class="animable"></polygon></g><path d="M149.46,365l-.13-.58c.43.08,2.27,3.14,4.1,4.47,2,1.45,3.74,2.31,4.63,3,1.2.88-.53,2.68-3.48,2.84-1.46.08-4.12-.37-4.94-1.15s-1.41-2.06-2.06-2.62-2-1.05-2.42-1.77a5.13,5.13,0,0,1-.25-2.21c0-.77.05-1.61.31-1.6l.1.45a5.23,5.23,0,0,0,2.5.55C148.51,366.31,149.8,366.15,149.46,365Z" style="fill: rgb(38, 50, 56); transform-origin: 151.663px 369.58px;" id="elat3gkndw9ju" class="animable"></path><path d="M145.05,328.66s-1.74-12.42-2.21-14.34a20.13,20.13,0,0,0,3.89-2.78,31.86,31.86,0,0,1-2.66,3.32Z" style="fill: rgb(55, 71, 79); transform-origin: 144.785px 320.1px;" id="elcji43cbh806" class="animable"></path><path d="M134.51,328.24a56.58,56.58,0,0,0,3,6.39s-.21,4-.18,4.79l-1.11,1a24.77,24.77,0,0,1,.5-5.37A32.64,32.64,0,0,1,134.51,328.24Z" style="fill: rgb(55, 71, 79); transform-origin: 136.01px 334.33px;" id="el22pff6g56or" class="animable"></path><path d="M133.4,258.19a2.1,2.1,0,0,1,1.14-.62l-1.49-.8a1.21,1.21,0,0,1,1.65-.55,1.31,1.31,0,0,1,.56,1.65l.52,5.79.49-.05.2,3.37.06,2.8c-1.35,0-2.36-1.36-3.13-5.88C132.77,260.48,132.61,259,133.4,258.19Z" style="fill: rgb(38, 50, 56); transform-origin: 134.698px 262.932px;" id="elk2h6u31443k" class="animable"></path><path d="M151.34,255.83a1.42,1.42,0,0,1,.28.61,1.81,1.81,0,0,1-.42,1.42,4.85,4.85,0,0,1-.57.54c-.08.07-1.93,1.2-2,.88A5.94,5.94,0,0,0,148,258c-.19-.39-.38-.78-.58-1.17a8.61,8.61,0,0,0,1.82-1,2,2,0,0,1,1.36-.49A1.2,1.2,0,0,1,151.34,255.83Z" style="fill: rgb(38, 50, 56); transform-origin: 149.528px 257.338px;" id="el5sm59r65ed" class="animable"></path><path d="M136.37,264.18c-.37.21-.88-.48-1.32-.95a1.57,1.57,0,0,0-2.63.43c-.73,1.55.64,3.61,1.79,4,2,.62,2.26-.65,2.26-.65l.15,7.11a6.36,6.36,0,0,0,4.79,3.63c3.49.47,2.77-2.41,1.62-3.82v-2.16a12.13,12.13,0,0,0,2.65.13,3.6,3.6,0,0,0,2.8-2.93c.71-2.52,1-4.55.38-9.51-.66-5.43-7-5.48-10.38-3.34S136.37,264.18,136.37,264.18Z" style="fill: rgb(177, 102, 104); transform-origin: 140.707px 266.303px;" id="el7j3re86y7ln" class="animable"></path><path d="M136.37,264.78c-.19,0-.88-1.14-1.32-1.55-.63-.56.18-5.69.18-5.69a3.49,3.49,0,0,1,.6-3.23c1.23-1.29,3.61-1.07,5.35-1.14a20.28,20.28,0,0,0,3.38-.34c1.25-.25,2.57-1,3.86-1a2.44,2.44,0,0,1,2.19,1.58,3,3,0,0,1-.43,2.72,6,6,0,0,1-2.52,1.63,7.63,7.63,0,0,1-2.54.62,33.92,33.92,0,0,1-6.39-.12c-.67-.09-.81.56-1.18,2.33C137.24,262.14,137,264.77,136.37,264.78Z" style="fill: rgb(38, 50, 56); transform-origin: 142.786px 258.305px;" id="eldxc8it9pwr8" class="animable"></path><path d="M143,271.74a24.22,24.22,0,0,1-4.37-1.26,3.7,3.7,0,0,1-1.56-1.54,5,5,0,0,0,.89,1.82c.82,1.06,5,1.84,5,1.84Z" style="fill: rgb(154, 74, 77); transform-origin: 140.035px 270.77px;" id="elxldqqca2ut" class="animable"></path><path d="M143.52,263.34a.65.65,0,1,1-.65-.68A.67.67,0,0,1,143.52,263.34Z" style="fill: rgb(38, 50, 56); transform-origin: 142.87px 263.31px;" id="el6ds379fsc3f" class="animable"></path><path d="M142.83,260.89l-1.39.77a.84.84,0,0,1,.32-1.11A.78.78,0,0,1,142.83,260.89Z" style="fill: rgb(38, 50, 56); transform-origin: 142.088px 261.058px;" id="eliduwb3583p" class="animable"></path><path d="M143.6,267.81l1.48.56a.77.77,0,0,1-1,.49A.84.84,0,0,1,143.6,267.81Z" style="fill: rgb(154, 74, 77); transform-origin: 144.317px 268.359px;" id="el2y2z0d4mb54" class="animable"></path><path d="M148.72,261.43l-1.26-1a.75.75,0,0,1,1.09-.17A.83.83,0,0,1,148.72,261.43Z" style="fill: rgb(38, 50, 56); transform-origin: 148.174px 260.764px;" id="eln97q0q6tkm" class="animable"></path><path d="M148.57,262.94a.65.65,0,1,1-.64-.67A.66.66,0,0,1,148.57,262.94Z" style="fill: rgb(38, 50, 56); transform-origin: 147.92px 262.92px;" id="el50oi0q1k6bu" class="animable"></path><polygon points="145.39 262.54 145.6 266.44 147.63 265.74 145.39 262.54" style="fill: rgb(154, 74, 77); transform-origin: 146.51px 264.49px;" id="elrsustxucxzo" class="animable"></polygon><polygon points="156.28 306.28 156.28 306.88 154.47 306.88 207.19 378.3 208.65 377.22 156.28 306.28" style="fill: rgb(186, 104, 200); transform-origin: 181.56px 342.29px;" id="elhlgg29po2v6" class="animable"></polygon><g id="eldhs6god3vxn"><g style="opacity: 0.3; transform-origin: 181.56px 342.29px;" class="animable"><polygon points="156.28 306.28 156.28 306.88 154.47 306.88 207.19 378.3 208.65 377.22 156.28 306.28" id="elo6vh3cvxzb9" class="animable" style="transform-origin: 181.56px 342.29px;"></polygon></g></g><path d="M152.16,307.34c1,.49,4.67.7,5.37-1.28l-.63-.88s-1.4,1.89-5.24.65A2.36,2.36,0,0,0,152.16,307.34Z" style="fill: rgb(186, 104, 200); transform-origin: 154.595px 306.426px;" id="eliovn9c9waar" class="animable"></path><g id="elmc1qucdu8b"><path d="M152.16,307.34c1,.49,4.67.7,5.37-1.28l-.63-.88s-1.4,1.89-5.24.65A2.36,2.36,0,0,0,152.16,307.34Z" style="opacity: 0.3; transform-origin: 154.595px 306.426px;" class="animable"></path></g><path d="M216.36,388.11c-.34,2.26,0,8.09-4.17,11.66-1,.84-8.67,3.62-9.24,3.76,0,0,2.18,1.28,1.48,2s-2.65,1-5.26-.81c-1.81-1.27-.38-2.77,1.22-3.66,1.08-.59,4-2.68,5.53-3.75a2.72,2.72,0,0,0,1.38-2.48l-.15-3.78Z" style="fill: rgb(55, 71, 79); transform-origin: 207.343px 397.097px;" id="elayopsjxz4v" class="animable"></path><path d="M190.23,378.13c-2.3-4.07-6.88-5.51-8.2-8-1.84-3.43.45-6.09.39-7.21s-2.31-.35-3.06,3.39a8.12,8.12,0,0,0,2.25,7.39c1.8,2,5.53,4.48,6,6.8Z" style="fill: rgb(55, 71, 79); transform-origin: 184.714px 371.474px;" id="elc26wrxt486" class="animable"></path><path d="M189.31,390.28c-.83.92-3,3.55-2.89,4.62a25.13,25.13,0,0,0,1,3.48s1.92.94,2.51,1.35.34,2.11-2,2.18-3.53-.7-4.08-1.93c-.34-.77-1.24-3.23-1.88-5a6.69,6.69,0,0,1-.18-4,14,14,0,0,1,1.37-3.58C184.18,385.93,189.31,390.28,189.31,390.28Z" style="fill: rgb(55, 71, 79); transform-origin: 185.884px 394.506px;" id="elg80pyniygev" class="animable"></path><path d="M207.64,374.83c-1.92,1.71-9.36-.15-12.08-1.78-3.48-2.09-8.15-2.87-11.72-1.23-3.32,1.52-6.34,3.79-7.23,14C176,387.75,171.09,392,171,394a15.22,15.22,0,0,0,.09,4.42,3.4,3.4,0,0,0,1.33,2.13,1.23,1.23,0,0,0,.31.14,1.33,1.33,0,0,0,1.65-.56,3.38,3.38,0,0,0,.28-1.67c0-.42,0-.84,0-1.27a3.53,3.53,0,0,1,1.06-2.89,14.45,14.45,0,0,1,2.58-1.57c.55-.35,1.13-.63,1.7-.93a12.2,12.2,0,0,0,1.87-1.21c.43-.33.83-.69,1.23-1.06a13,13,0,0,1,1.47-1.49c2,.64,3.57,1.82,6.64,4.18,3.46,2.68,6.68,4.55,7.92,6,.75.91,2.12,5.15,2.2,5.35.71,2,1.8,6.23,2.07,7.4a3.51,3.51,0,0,0,3.32,3c2.45.39,4.09.2,4.4-.3,1.3-2.09-3.09-3.36-3.09-3.36s-.58-1.8-1.46-5.58c-1.11-4.82-.63-6.5-.63-6.5a13.35,13.35,0,0,0,8.21-5.24c2.16-3.07,2.27-4.12,2.69-8.48C215.49,379.36,213.17,375.31,207.64,374.83Z" style="fill: rgb(69, 90, 100); transform-origin: 193.86px 392.558px;" id="elnc21fquso4" class="animable"></path><path d="M217.23,382.24l-4.1.18-4.4-1.37-3.31-3.44a7.78,7.78,0,0,0,5.24,6.92,8.87,8.87,0,0,0,6.14,0h0c.11-.68.24-1.38.39-2.11Z" style="fill: rgb(55, 71, 79); transform-origin: 211.325px 381.344px;" id="ell90ppagzu" class="animable"></path><path d="M210.18,392a9.78,9.78,0,0,0-4.28,6.3c2.17-.06,5.5-1.62,8.1-5.09a11.12,11.12,0,0,0,1.6-2.59C213.44,392.73,211.66,391.1,210.18,392Z" style="fill: rgb(245, 245, 245); transform-origin: 210.75px 394.46px;" id="elj0snq7aest" class="animable"></path><path d="M205.9,398.25c1.92-.05,4.76-1.29,7.19-4-.13.11-2.6,2.24-4,2.29s-1.74-1.06-1.53-2.12A12.1,12.1,0,0,0,205.9,398.25Z" style="fill: rgb(224, 224, 224); transform-origin: 209.495px 396.25px;" id="elqge69xbb3b" class="animable"></path><path d="M217.94,363.71a2.32,2.32,0,0,1,2.76-.65c1.51.47,4,2.2,4.49,3.19.71,1.47-2.76,7.63-4.71,6.11S217.94,363.71,217.94,363.71Z" style="fill: rgb(38, 50, 56); transform-origin: 221.612px 367.726px;" id="elfjz0e7stafl" class="animable"></path><path d="M217.2,382.42c.07-.38.15-.77.25-1.16a24.2,24.2,0,0,0,5.63.71l.45-.06a2.88,2.88,0,0,0,.4-.09,5.92,5.92,0,0,0,1.66-.92,4.53,4.53,0,0,0,.91-.76l.23-.24a.09.09,0,0,0,0-.08h0a5.87,5.87,0,0,0,.8-1.3c.54-1.26-1.23-2.48-1.95-4.09s-.85-5-1.93-7.35-4.41-3.82-7.83-3.28c-5,.8-6.36,4.69-7.65,8.68a3.78,3.78,0,0,1-1.94,2.4" style="fill: rgb(69, 90, 100); transform-origin: 216.93px 373.054px;" id="eloqzmokyn7ip" class="animable"></path><path d="M223,374.66c-1.21.39-1.15,1.7-2,2.64s-4.6,2.83-6.38,1.67c-2.25-1.46-4.73-1-3.82,1.67s5.41,2.11,6.61.62h0a24.2,24.2,0,0,0,5.63.71l.45-.06a2.88,2.88,0,0,0,.4-.09,5.92,5.92,0,0,0,1.66-.92,4.53,4.53,0,0,0,.91-.76l.23-.24a.09.09,0,0,0,0-.08h0a5.87,5.87,0,0,0,.8-1.3c.42-1-.56-1.93-1.35-3.06h0C225.42,374.51,225.28,373.94,223,374.66Z" style="fill: rgb(245, 245, 245); transform-origin: 219.099px 378.423px;" id="elrqmhbjzox1" class="animable"></path><path d="M217.45,381.26c-3.53-.43-4.58-2-4.58-2A1.76,1.76,0,0,0,213,382C214.66,383.26,217.45,381.26,217.45,381.26Z" style="fill: rgb(224, 224, 224); transform-origin: 214.863px 380.838px;" id="elr4gafw3vm4l" class="animable"></path><path d="M217.45,381.26c-2.34,1.24-5.8.31-7.81-1.42a6.44,6.44,0,0,1-1.86-6.35s-1.94.32-2.39,1.67a6.76,6.76,0,0,0,2.13,6.16c1.92,1.8,6.66,4,9.52,1.95A1.74,1.74,0,0,0,217.45,381.26Z" style="fill: rgb(186, 104, 200); transform-origin: 211.45px 378.792px;" id="el0nkvv9omkzk9" class="animable"></path><path d="M215.61,364.57c-.76-1.82-5-1.5-7.41.69-1.53,1.37-2,4.5-2.16,6.4-.12,2.16-.22,5.59,3.59,4.56,1.74-.48,2.87-4.13,3.2-5.8C213.28,368.06,214.59,365.15,215.61,364.57Z" style="fill: rgb(38, 50, 56); transform-origin: 210.805px 369.898px;" id="elrlepoziyhc" class="animable"></path><path d="M226.2,380.23a3,3,0,0,1-2.23-1.37,1.32,1.32,0,0,1,.63-1.79,4.73,4.73,0,0,1,2.41-.27,1.53,1.53,0,0,1,.85,1.46A2.49,2.49,0,0,1,226.2,380.23Z" style="fill: rgb(38, 50, 56); transform-origin: 225.847px 378.489px;" id="elawq1kcfnf1j" class="animable"></path><path d="M223.34,371.66a.7.7,0,1,1,.7.7A.7.7,0,0,1,223.34,371.66Z" id="ely0vcx81csga" class="animable" style="transform-origin: 224.04px 371.66px;"></path><path d="M217.94,372.29a.79.79,0,0,1,.79-.79.79.79,0,0,1,.8.79.8.8,0,0,1-.8.8A.79.79,0,0,1,217.94,372.29Z" id="el8edhhuevr4j" class="animable" style="transform-origin: 218.735px 372.295px;"></path></g><g id="freepik--Clouds--inject-122" class="animable" style="transform-origin: 230.985px 91.972px;"><path d="M86.85,64.27l-6.95,4c0-.32,0-.62,0-.93v-2c0-3.58-2.51-5-5.62-3.24A10.87,10.87,0,0,0,71,65.33c-.5-4.51-4-6.19-8.33-3.71-4.65,2.68-8.41,9.2-8.41,14.56v3A8,8,0,0,0,55,82.69L49.18,86a6.88,6.88,0,0,0-3.12,5.4c0,2,1.39,2.79,3.12,1.8L86.85,71.47A6.88,6.88,0,0,0,90,66.07C90,64.08,88.57,63.28,86.85,64.27Z" style="fill: rgb(235, 235, 235); transform-origin: 68.03px 77.0496px;" id="eluz683hwhuz" class="animable"></path><path d="M116.6,84.53l-5.25,3a5.58,5.58,0,0,0,0-.7V85.34c0-2.7-1.89-3.8-4.24-2.45a8.18,8.18,0,0,0-2.52,2.43c-.39-3.4-3.06-4.66-6.3-2.79a14,14,0,0,0-6.34,11v2.27a6.08,6.08,0,0,0,.53,2.64l-4.35,2.51A5.22,5.22,0,0,0,85.81,105c0,1.5,1.06,2.1,2.36,1.35L116.6,90A5.19,5.19,0,0,0,119,85.88C119,84.38,117.9,83.78,116.6,84.53Z" style="fill: rgb(235, 235, 235); transform-origin: 102.405px 94.1683px;" id="elkahs9zir0lo" class="animable"></path><path d="M413.56,101.32l-5.25,3a5.34,5.34,0,0,0,.05-.69v-1.52c0-2.71-1.9-3.8-4.24-2.45a8.21,8.21,0,0,0-2.53,2.43c-.39-3.4-3-4.67-6.3-2.8a14.05,14.05,0,0,0-6.34,11v2.28a5.86,5.86,0,0,0,.54,2.63l-4.36,2.52a5.19,5.19,0,0,0-2.35,4.07c0,1.5,1.05,2.11,2.35,1.36l28.43-16.41a5.21,5.21,0,0,0,2.35-4.08C415.91,101.18,414.86,100.57,413.56,101.32Z" style="fill: rgb(235, 235, 235); transform-origin: 399.345px 110.948px;" id="elnbtbd2pry7i" class="animable"></path></g><defs>     <filter id="active" height="200%">         <feMorphology in="SourceAlpha" result="DILATED" operator="dilate" radius="2"></feMorphology>                <feFlood flood-color="#32DFEC" flood-opacity="1" result="PINK"></feFlood>        <feComposite in="PINK" in2="DILATED" operator="in" result="OUTLINE"></feComposite>        <feMerge>            <feMergeNode in="OUTLINE"></feMergeNode>            <feMergeNode in="SourceGraphic"></feMergeNode>        </feMerge>    </filter>    <filter id="hover" height="200%">        <feMorphology in="SourceAlpha" result="DILATED" operator="dilate" radius="2"></feMorphology>                <feFlood flood-color="#ff0000" flood-opacity="0.5" result="PINK"></feFlood>        <feComposite in="PINK" in2="DILATED" operator="in" result="OUTLINE"></feComposite>        <feMerge>            <feMergeNode in="OUTLINE"></feMergeNode>            <feMergeNode in="SourceGraphic"></feMergeNode>        </feMerge>            <feColorMatrix type="matrix" values="0   0   0   0   0                0   1   0   0   0                0   0   0   0   0                0   0   0   1   0 "></feColorMatrix>    </filter></defs></svg>